<svg id="Layer_1" data-name="Layer 1" xmlns="http://www.w3.org/2000/svg" viewBox="0 0 1796 391"><defs><style>.cls-1{fill:#405650;}</style></defs><title>Artboard 2</title><path class="cls-1" d="M555.55,68.3q40.22,0,62.24,21.2t25.28,54.36h76.1q-4.35-62-48.92-102.74T555.55.35q-85.89,0-132.64,54.36T376.17,196q0,86.43,46.74,140.52t132.64,54.09q69.57,0,113.34-39.41T719.17,251H643.61q-6,32.61-27.72,52.45t-60.34,19.84q-51.1,0-77.19-34T452.26,196q0-59.23,26.1-93.5T555.55,68.3"/><path class="cls-1" d="M278.05,199.58q-31.26-26.91-88.33-38.87l-51.64-10.87q-26.66-6-37.79-16.31A33.42,33.42,0,0,1,89.15,108q0-18.48,16.58-29.63t49.2-11.14q34.77,0,52.73,15c12,10,19.46,22.89,19.56,38.87,0,5.44,0,10.55,0,10.55h75.57V121c0-35.52-14.23-64.5-41.59-87S198.77.35,156,.35Q90.24.35,51.37,30T12.5,108q0,48.39,29.09,73.93t83.44,37l55.45,12q27.17,6,39.68,16.86t12.5,29.89q0,46.76-77.19,46.75-35.88,0-56.81-16.31t-23.1-47.83V251H0v9.24q2.72,60.33,42.67,95.4t112.8,35.06q77.19,0,115.51-30.71t38.33-84q0-49.45-31.26-76.37"/><polygon class="cls-1" points="1281.31 5.25 1206.63 5.25 1206.63 386.82 1457.38 386.82 1457.38 319.77 1281.31 319.77 1281.31 5.25"/><polygon class="cls-1" points="1531.63 5.25 1531.63 386.82 1796 386.82 1796 320.32 1606.31 320.32 1606.31 223.29 1779.1 223.29 1779.1 156.79 1606.31 156.79 1606.31 72.3 1796 72.3 1796 5.25 1531.63 5.25"/><path class="cls-1" d="M884.59,250.67l3.29-9.93L939.66,81.57h2.18l51.41,158C955,252.8,915,253.39,884.59,250.67m197.62,13.75-.77-2.15a251.18,251.18,0,0,0,44-38.73l-25-65.86a243.42,243.42,0,0,1-40.94,43.16L989.81,5.25H895L761.42,381.37v5.45h78.49L863.36,315l1.65-5.05a402.47,402.47,0,0,0,46.81,2.74c32.39,0,66.26-3.43,100.6-15.1l1.76,5.32,1.25,3.8,26.17,80.12h82.3v-5.45l-15-42.14Z"/></svg>